<svg version="1" xmlns="http://www.w3.org/2000/svg" width="933.333" height="933.333" viewBox="0 0 700.000000 700.000000"><path d="M331.7 52.6c-.1.1-6.5.5-14.2.8-17.8.9-31.6 2-37.2 3-1 .2-4 .7-6.8 1-2.7.4-6.6 1-8.5 1.2-13.2 1.9-36.5 7.8-48.8 12.3-37.7 13.9-62.3 35.1-77 66.3-4.7 10-10.4 28.5-11.7 38.1-.3 2.3-.8 5.3-1.1 6.7-.5 3-1.1 7.4-1.8 15.7-.3 3.5-.8 8.9-1.1 12-1.2 13.3-2 114.3-1 126.8 4 48.5 21.8 77.5 61.3 99.6l8.7 4.9v61.7c.1 53.7.3 62.2 1.6 64.7.9 1.5 18.6 19.8 39.4 40.6 31 31.1 38.4 38 41.4 38.7 2 .5 36.5.8 76.6.8 64.9-.1 73.3-.3 76-1.7 3.8-2 76.3-74.6 78.4-78.4 1.3-2.5 1.5-11 1.6-64.7V441l8.7-4.9c22.4-12.6 37.1-26.8 47.5-46.1 5.8-10.9 11.4-29.7 12.9-44 .3-3.6.8-8.1 1-10 1.3-12.4-.4-128.9-2-137.6-.2-1-.7-5.1-1-8.9-1-10-5-28.7-8.2-38-12.2-36.3-36.4-61.5-73.9-77-11.9-5-12.7-5.3-15-5.8-1.1-.3-5.8-1.7-10.5-3-8.5-2.6-26.1-6.5-32.2-7.2-3-.3-6-.8-14.3-1.9-18.6-2.7-38.1-3.8-67.8-4-11.5-.1-20.9-.1-21 0zm52.8 35.8c14.6.8 18.6 1.1 27 2.1 2.8.3 6.8.8 9 1.1 4.4.5 19.8 3.1 23 3.9 23.8 5.4 38.6 11.2 54 21 20.5 13.2 34.3 34.8 39.9 62.5 1.3 6.5 1.9 10.5 3.2 20.8 1.8 15.1 3.4 123.4 1.9 136.7-2.5 22.6-7.4 36.3-17.5 48.5-5.2 6.2-16 15.4-17 14.4-.2-.3-.5-51.9-.5-114.7-.1-121.9.2-116-4.9-121.5-8-8.9-22.6-6.7-28.2 4.1-.8 1.5-1.7 5.1-2 8-.7 6.3-2.3 9.6-6.4 13.1-8.4 7-21.5 4.2-26.6-5.6-.8-1.6-1.6-5-1.9-7.8-.6-7.4-4-12.7-10.1-15.8-5.6-2.9-14.3-1.5-19.1 3-3.6 3.3-5.2 6.9-5.8 12.8-.6 5.7-1.7 8.3-4.9 11.8-4.6 5.1-11.5 6.9-17.9 4.6-7.5-2.7-11.4-7.9-12.2-16.4-.7-8.3-4.9-14-12-16.4-6.2-2.2-12.3-.8-17.3 3.8-3.4 3-5 6.5-5.8 12.7-.4 3-1.3 6.6-2 8-3.7 7.3-13 11-20.8 8.4-7.2-2.5-11.4-8.1-12.1-16.5-.2-2.7-1.1-6.2-1.9-7.7-5.6-10.8-20.2-13-28.2-4.1-3.3 3.6-4.5 6.5-4.9 11.8-.2 2.6-1.1 6.2-1.9 7.8-3.9 7.6-13.1 11.4-21 8.7-7.2-2.5-11.5-8.3-12.1-16.5-.8-10.3-7.6-17.1-17.4-17.3-5 0-9.4 1.8-12.8 5.5-5.1 5.5-5 1.1-4.9 123 .1 62.6-.2 113.8-.5 113.8-1.3 0-6.7-4.6-13.4-11.4-12.4-12.6-18.7-28.4-21.1-52.7-.8-8.7 0-104.3 1-123.4.7-10.7 1.3-16.9 3.2-28.5 1.1-7.2 5.7-22.6 8.7-29.4 8.9-20.1 25.8-36.8 47.3-46.6 17.4-8 47.3-15.4 70.9-17.5 3.9-.3 8.4-.8 10-1 1.7-.2 8.6-.7 15.5-1 6.9-.4 12.6-.8 12.7-.9.5-.4 46 .2 57.8.8zM283.2 216.6c16.7 14 46.9 14 63.5 0l3-2.6 4 2.9c19.2 13.9 44.4 13.8 63.2-.3l3.4-2.5 3 2.5c10 8.5 27.8 12.7 41.2 9.8 3.3-.7 6.5-1.3 7-1.3.7-.1 1 6.5 1 18.6v18.8H430c-37 .1-42.9.3-45.5 1.7-13.9 7.4-12.8 27.2 1.8 32.2 2 .6 7.9 1.1 13.1 1.1 10.4-.1 9.8-.5 11.1 6.1.8 4.1 6.5 10.7 11.1 12.9 5.1 2.4 13 2.3 18.1-.3 5-2.6 10-8.4 10.8-12.6 1.3-6.5.7-6.1 11.7-6.1h10.3V355l.1 57.5-20.8 20.9c-13.3 13.4-20.9 20.4-21.2 19.5-.3-.8-1.9-8.4-3.5-16.9-3.9-20.1-5.5-25-8.8-28.2-5.6-5.2-5.7-5.2-38.8-5.4-17-.1-31.5-.2-32-.3-.7-.1-1-21.4-1-62.3 0-65.7 0-66.5-4.7-71.5-5.4-5.8-3.7-5.7-60.8-5.9-28.9-.1-52.7-.2-53-.3-1-.2-.6-37.1.5-37.1.5 0 2.7.5 4.9 1.1 4.6 1.3 14.1 1.5 21.1.5 5.7-.8 20.1-7.4 22.9-10.5 2.4-2.6 2.2-2.6 5.8.5zM248 297.9c.3 0 .7 1.2.8 2.6.5 5.8 5.4 12.5 11.5 15.7 12.6 6.4 26.9-1.3 30.1-16.2.5-2.6.6-2.6 10.8-2.5h10.3v52.3c0 28.7-.2 52.2-.5 52.3-.3.1-5.2.2-11 .3-11.1.3-14.7 1.4-18.6 5.8-3.4 3.7-4 5.3-7.8 24.8-2.1 10.2-3.9 19.1-4.2 19.9-.3.9-8.2-6.3-21.2-19.3L227.5 413v-57.3c-.1-31.4.3-57.5.7-57.8.6-.4 18-.5 19.8 0zm143.4 140.2c.3.3 1.5 5.4 2.7 11.5 1.1 6 2.2 11.6 2.4 12.4.2.8 1.8 8.7 3.5 17.5 1.8 8.8 3.8 17.1 4.5 18.5 4.2 8 15.3 11.8 23 7.7 1.5-.7 12-10.6 23.4-22 11.4-11.4 20.9-20.7 21.2-20.7.2 0 .4 20.2.4 45v44.9l-29.9 29.8-29.8 29.8-61.7.1c-37.1 0-62.4-.3-63.6-.9-2.8-1.4-57.3-55.7-58.9-58.7-.9-1.9-1.2-12.5-1.2-45.7.1-23.7.4-43.4.7-43.7.3-.3 9.9 8.9 21.4 20.5 18.2 18.2 21.6 21.1 25.6 22.3 9.4 2.8 18-1.7 21.2-10.9.8-2.2 3.8-16.2 6.7-31l5.4-27h41.2c22.7 0 41.5.3 41.8.6z"/></svg>